<?xml version="1.0" encoding="utf-8"?>
<!-- Generator: Adobe Illustrator 26.4.1, SVG Export Plug-In . SVG Version: 6.00 Build 0)  -->
<svg version="1.1" id="Layer_1" xmlns="http://www.w3.org/2000/svg" xmlns:xlink="http://www.w3.org/1999/xlink" x="0px" y="0px"
	 viewBox="0 0 715 200" style="enable-background:new 0 0 715 200;" xml:space="preserve">
<style type="text/css">
	.st0{fill:url(#SVGID_1_);}
	.st1{fill:url(#SVGID_00000034809072252605834640000018163887936510079641_);}
	.st2{fill:url(#SVGID_00000096046433828160473770000011468489995775638933_);}
	.st3{fill:url(#SVGID_00000052075186487971937950000004063855973480319616_);}
</style>
<g>
	<path d="M701.2,173.6c1,0.7,2.4,1.1,4.2,1.1c1.1,0,2.1-0.1,2.9-0.6c0.8-0.4,1.5-1,2-1.7c0.4-0.7,0.7-1.4,0.7-2.2
		c0-0.8-0.1-1.5-0.6-2.1c-0.4-0.6-1-1-1.5-1.3c-0.7-0.3-1.8-0.7-3.5-1.1c-1.1-0.3-1.8-0.6-2.1-0.6c-0.4-0.1-0.7-0.4-1-0.7
		c-0.3-0.3-0.3-0.6-0.3-0.8c0-0.4,0.3-1,0.7-1.3c0.4-0.3,1.3-0.6,2.4-0.6c1,0,1.7,0.1,2.1,0.6c0.4,0.4,0.8,1,1,1.7l2.4-0.3
		c-0.1-1-0.4-1.7-0.8-2.2c-0.4-0.6-1-1-1.8-1.3c-0.8-0.3-1.8-0.4-2.9-0.4c-0.7,0-1.4,0.1-2.1,0.3c-0.7,0.1-1.1,0.4-1.5,0.7
		c-0.6,0.4-0.8,0.8-1.1,1.4c-0.3,0.6-0.4,1.1-0.4,1.8c0,0.7,0.1,1.3,0.6,2c0.4,0.7,0.8,1,1.5,1.4c0.7,0.3,2,0.7,3.6,1.1
		c1.3,0.3,2.1,0.6,2.5,0.8c0.4,0.3,0.7,0.7,0.7,1.3c0,0.6-0.3,1.1-0.8,1.5s-1.4,0.7-2.4,0.7s-2-0.3-2.5-0.7c-0.6-0.6-1-1.3-1.1-2.2
		l-2.4,0.4C699.7,171.8,700.3,172.9,701.2,173.6 M687.9,163.1c0.7-0.7,1.7-1.1,2.8-1.1c1.3,0,2.2,0.4,2.9,1.4c0.6,0.6,0.8,1.5,1,2.6
		h-7.8C686.6,164.8,687,163.8,687.9,163.1 M693,172.1c-0.6,0.4-1.4,0.7-2.2,0.7c-1.1,0-2.1-0.4-2.9-1.3c-0.8-0.8-1.3-2-1.3-3.6h10.5
		c0-0.3,0-0.6,0-0.7c0-2.4-0.6-4.2-1.8-5.4s-2.8-2-4.6-2c-2,0-3.5,0.7-4.7,2s-1.8,3.2-1.8,5.6c0,2.2,0.6,4,1.8,5.3
		c1.3,1.3,2.8,2,4.9,2c1.7,0,2.9-0.4,4-1.3c1.1-0.8,1.8-2,2.1-3.3l-2.5-0.3C694.1,170.9,693.6,171.6,693,172.1 M680.6,160.4h-2.4
		v14.1h2.4V160.4z M680.6,154.9h-2.4v2.8h2.4V154.9z M674.3,172.3c-0.4,0-0.7,0-0.8-0.1c-0.1-0.1-0.3-0.3-0.4-0.4
		c-0.1-0.1-0.1-0.7-0.1-1.3v-8.2h2.4v-1.8h-2.4v-4.9l-2.4,1.4v3.5h-1.8v1.8h1.8v8.1c0,1.4,0.1,2.4,0.3,2.8s0.6,0.8,1,1.1
		c0.4,0.3,1.1,0.4,2.1,0.4c0.6,0,1.1-0.1,1.8-0.3l-0.3-2.1C675,172.3,674.6,172.3,674.3,172.3 M666.2,160.4h-2.4v14.1h2.4V160.4z
		 M666.2,154.9h-2.4v2.8h2.4V154.9z M650.8,173.6c1,0.7,2.4,1.1,4.2,1.1c1.1,0,2.1-0.1,2.9-0.6c0.8-0.4,1.5-1,2-1.7
		c0.4-0.7,0.7-1.4,0.7-2.2c0-0.8-0.1-1.5-0.6-2.1c-0.4-0.6-0.8-1-1.5-1.3c-0.7-0.3-1.8-0.7-3.5-1.1c-1.1-0.3-1.8-0.6-2.1-0.6
		c-0.4-0.1-0.7-0.4-1-0.7c-0.1-0.3-0.3-0.6-0.3-0.8c0-0.4,0.3-1,0.7-1.3c0.4-0.4,1.3-0.6,2.4-0.6c1,0,1.7,0.1,2.1,0.6
		c0.6,0.4,0.8,1,1,1.7l2.4-0.3c-0.1-1-0.4-1.7-0.8-2.2c-0.4-0.6-1-1-1.8-1.3c-0.8-0.3-1.8-0.4-2.9-0.4c-0.7,0-1.4,0.1-2.1,0.3
		c-0.7,0.1-1.1,0.4-1.5,0.7c-0.6,0.4-0.8,0.8-1.1,1.4c-0.3,0.6-0.4,1.1-0.4,1.8c0,0.7,0.1,1.3,0.6,2c0.4,0.6,0.8,1,1.5,1.4
		c0.7,0.3,2,0.7,3.6,1.1c1.3,0.3,2.1,0.6,2.4,0.8c0.4,0.3,0.7,0.7,0.7,1.3c0,0.6-0.3,1.1-0.8,1.5s-1.4,0.7-2.4,0.7
		c-1.1,0-2-0.3-2.5-0.7c-0.6-0.6-1-1.3-1.1-2.2l-2.4,0.4C649.1,171.8,649.8,172.9,650.8,173.6 M642.4,174.4V167c0-1,0.1-2,0.4-2.8
		c0.1-0.6,0.4-1,0.8-1.3c0.4-0.3,0.8-0.4,1.4-0.4c0.6,0,1.1,0.1,1.8,0.6l0.8-2.2c-0.8-0.6-1.7-0.8-2.5-0.8c-0.6,0-1.1,0.1-1.5,0.4
		s-1,1-1.5,2v-2.1H640v14.1L642.4,174.4L642.4,174.4z M627.6,163.1c0.7-0.7,1.7-1.1,2.8-1.1c1.3,0,2.2,0.4,2.9,1.4
		c0.6,0.6,0.8,1.5,0.8,2.6h-7.8C626.4,164.8,626.8,163.8,627.6,163.1 M632.8,172.1c-0.6,0.4-1.4,0.7-2.2,0.7c-1.1,0-2.1-0.4-2.9-1.3
		c-0.8-0.8-1.3-2-1.3-3.6h10.5c0-0.3,0-0.6,0-0.7c0-2.4-0.6-4.2-1.8-5.4s-2.8-2-4.6-2c-2,0-3.5,0.7-4.7,2s-1.8,3.2-1.8,5.6
		c0,2.2,0.6,4,1.8,5.3c1.3,1.3,2.8,2,4.9,2c1.7,0,2.9-0.4,4-1.3c1.1-0.8,1.8-2,2.1-3.3l-2.5-0.3
		C633.9,170.9,633.3,171.6,632.8,172.1 M617,174.4l5.3-14.1h-2.5l-3.1,8.6c-0.4,1-0.7,2-0.8,2.6c-0.3-1-0.6-2-0.8-2.8l-3.1-8.5h-2.5
		l5.3,14.1L617,174.4L617,174.4z M606.8,160.4h-2.4v14.1h2.4V160.4z M606.8,154.9h-2.4v2.8h2.4V154.9z M591.4,174.4v-7.7
		c0-1.8,0.4-3.1,1.1-3.6c0.7-0.7,1.7-1,2.6-1c0.7,0,1.3,0.1,1.7,0.4c0.4,0.3,0.8,0.7,1,1.1c0.1,0.4,0.3,1.3,0.3,2.2v8.6h2.4v-8.6
		c0-1.1,0-1.8-0.1-2.4c-0.1-0.7-0.4-1.3-0.7-1.8c-0.4-0.6-0.8-0.8-1.5-1.3c-0.7-0.3-1.5-0.4-2.4-0.4c-2,0-3.5,0.8-4.5,2.4v-2h-2.1
		v14.1h2.2V174.4z M582,166.2c0,2.4-0.4,4-1.3,5c-0.8,0.8-2.1,1.3-4,1.3c-1.1,0-2.1-0.3-2.8-0.7c-0.7-0.4-1.3-1.1-1.7-1.8
		c-0.3-0.8-0.4-2.1-0.4-3.8v-11.3h-2.5v11.3c0,2.1,0.3,3.6,0.7,4.9c0.6,1.3,1.3,2.1,2.5,2.8c1.3,0.7,2.6,1,4.5,1
		c1.8,0,3.3-0.4,4.6-1.1c1.1-0.7,2-1.7,2.4-2.8c0.4-1.1,0.7-2.6,0.7-4.6v-11.3H582L582,166.2L582,166.2z M541,174.4v-7.3
		c0-1.3,0.1-2.2,0.4-2.9c0.3-0.7,0.7-1.3,1.3-1.5c0.6-0.4,1.3-0.6,1.8-0.6c0.8,0,1.5,0.3,2,0.8c0.4,0.6,0.6,1.3,0.6,2.4v9.2h2.4
		v-8.2c0-1.4,0.3-2.5,1-3.2c0.7-0.7,1.5-1,2.5-1c0.6,0,1,0.1,1.4,0.4c0.4,0.3,0.7,0.6,0.8,1s0.3,1.1,0.3,2.1v8.9h2.4V165
		c0-1.7-0.4-2.8-1.1-3.6s-1.8-1.1-3.2-1.1c-1.8,0-3.2,0.8-4.3,2.5c-0.3-0.8-0.7-1.4-1.4-1.8s-1.5-0.7-2.5-0.7c-1,0-1.8,0.1-2.5,0.7
		c-0.7,0.4-1.3,1-1.8,1.7v-2h-2.1v14.1h2.2V174.4z M534.7,160.4h-2.4v14.1h2.4V160.4z M534.7,154.9h-2.4v2.8h2.4V154.9z
		 M514.9,157.1h6.1c1.4,0,2.5,0.3,3.2,0.8c0.7,0.6,1,1.4,1,2.2c0,0.7-0.1,1.3-0.6,1.8c-0.3,0.6-0.8,1-1.5,1.1
		c-0.7,0.3-1.5,0.4-2.8,0.4h-5.6L514.9,157.1L514.9,157.1z M514.9,174.4v-8.6h3.1c0.7,0,1.1,0,1.4,0.1c0.4,0.1,0.8,0.3,1.1,0.6
		c0.4,0.3,0.8,0.7,1.3,1.3c0.4,0.6,1.1,1.5,1.8,2.6l2.6,4h3.2l-3.3-5.3c-0.7-1-1.4-2-2.1-2.6c-0.4-0.3-0.8-0.7-1.5-1
		c1.8-0.3,3.2-0.8,4.2-1.8c0.8-1,1.4-2.1,1.4-3.5c0-1.1-0.3-2.1-0.8-2.9c-0.6-0.8-1.3-1.5-2.1-1.8c-0.8-0.4-2.2-0.6-3.9-0.6h-8.6
		v19.5L514.9,174.4L514.9,174.4z M498.9,171.9c-0.7,0.6-1.4,0.8-2.4,0.8c-1.1,0-2.1-0.4-2.8-1.3c-0.7-0.8-1.1-2.2-1.1-4.2
		c0-1.8,0.4-3.2,1.1-4c0.7-0.8,1.7-1.3,2.9-1.3c0.8,0,1.5,0.3,2.1,0.7c0.6,0.4,1,1.3,1.1,2.1l2.4-0.4c-0.3-1.4-0.8-2.5-1.8-3.3
		c-1-0.8-2.2-1.1-3.8-1.1c-1.3,0-2.4,0.3-3.3,0.8c-1,0.6-1.8,1.4-2.4,2.5c-0.6,1.1-0.7,2.5-0.7,4c0,2.4,0.6,4.2,1.8,5.4
		c1.1,1.3,2.8,2,4.6,2c1.5,0,2.8-0.4,3.9-1.4c1.1-1,1.7-2.2,2-3.8l-2.4-0.3C499.9,170.5,499.5,171.4,498.9,171.9 M486.6,160.4h-2.4
		v14.1h2.4V160.4z M486.6,154.9h-2.4v2.8h2.4V154.9z M479.7,174.4v-12.3h2.8v-1.8h-2.8v-1c0-1.1,0.1-1.8,0.4-2.1
		c0.3-0.3,0.8-0.4,1.7-0.4c0.4,0,0.8,0,1.3,0.1l0.4-2.1c-0.7-0.1-1.5-0.3-2.4-0.3c-1.3,0-2.2,0.4-2.8,1.1c-0.6,0.7-0.8,1.8-0.8,3.2
		v1.4h-2.1v1.8h2.1v12.3L479.7,174.4L479.7,174.4z M472.4,160.4H470v14.1h2.4V160.4z M472.4,154.9H470v2.8h2.4V154.9z M463.8,171.9
		c-0.7,0.6-1.4,0.8-2.4,0.8c-1.1,0-2.1-0.4-2.8-1.3c-0.7-0.8-1.1-2.2-1.1-4.2c0-1.8,0.4-3.2,1.1-4c0.7-0.8,1.7-1.3,2.9-1.3
		c0.8,0,1.5,0.3,2.1,0.7c0.6,0.4,1,1.3,1.1,2.1l2.4-0.4c-0.3-1.4-0.8-2.5-1.8-3.3c-1-0.8-2.2-1.1-3.8-1.1c-1.3,0-2.4,0.3-3.3,0.8
		c-1,0.6-1.8,1.4-2.4,2.5s-0.7,2.5-0.7,4c0,2.4,0.6,4.2,1.8,5.4s2.6,2,4.6,2c1.5,0,2.8-0.4,3.9-1.4c1.1-1,1.7-2.2,2-3.8l-2.4-0.3
		C464.8,170.5,464.3,171.4,463.8,171.9 M449.4,168.3c0,1.1-0.1,1.8-0.4,2.4c-0.3,0.7-0.8,1.3-1.5,1.7c-0.7,0.4-1.5,0.6-2.5,0.6
		c-1,0-1.7-0.1-2.1-0.7c-0.4-0.4-0.7-1-0.7-1.5c0-0.4,0.1-0.8,0.3-1.1c0.3-0.3,0.6-0.6,1-0.8c0.4-0.1,1.1-0.3,2.1-0.4
		c1.7-0.3,3.1-0.6,3.9-0.8L449.4,168.3L449.4,168.3z M450,174.4h2.5c-0.3-0.6-0.6-1.1-0.6-1.7c-0.1-0.6-0.1-2-0.1-4.2v-3.2
		c0-1.1,0-1.8-0.1-2.2c-0.1-0.7-0.4-1.3-0.7-1.7c-0.4-0.4-1-0.8-1.7-1.1c-0.7-0.3-1.7-0.4-2.9-0.4s-2.2,0.1-3.2,0.6
		c-1,0.4-1.7,0.8-2.1,1.4c-0.4,0.6-0.8,1.4-1,2.4l2.4,0.3c0.3-1,0.7-1.7,1.3-2.1c0.6-0.4,1.4-0.6,2.5-0.6c1.3,0,2.1,0.3,2.6,0.8
		c0.4,0.4,0.7,1.1,0.7,2.1c0,0.1,0,0.3,0,0.7c-1,0.3-2.4,0.6-4.3,0.8c-1,0.1-1.7,0.3-2.1,0.4c-0.7,0.1-1.3,0.4-1.7,0.8
		c-0.6,0.4-1,0.8-1.3,1.4c-0.3,0.6-0.4,1.3-0.4,2c0,1.1,0.4,2.1,1.3,2.9s2.1,1.1,3.6,1.1c1,0,1.8-0.1,2.6-0.4
		c0.8-0.3,1.7-0.8,2.5-1.5C449.6,173.3,449.8,174,450,174.4 M425,157.3h5c1.1,0,2,0,2.4,0.1c0.7,0.1,1.3,0.6,1.7,1.1
		c0.4,0.6,0.6,1.3,0.6,2.1c0,1.1-0.4,2-1,2.6c-0.6,0.7-1.8,1-3.5,1h-5L425,157.3L425,157.3z M425,174.4v-7.9h5
		c2.8,0,4.6-0.6,5.7-1.7c1.1-1.1,1.5-2.5,1.5-4.2c0-1-0.1-1.8-0.6-2.6s-1-1.4-1.5-1.8c-0.7-0.4-1.4-0.7-2.4-1
		c-0.7-0.1-1.7-0.1-2.9-0.1h-7.4v19.5h2.5V174.4z M410,174.4v-12.3h2.8v-1.8H410v-1.3c0-0.8,0.1-1.4,0.4-1.7
		c0.3-0.3,0.8-0.4,1.5-0.4c0.4,0,1,0,1.4,0.1l0.4-2.1c-0.8-0.1-1.5-0.3-2.2-0.3c-1,0-1.8,0.1-2.4,0.6c-0.6,0.4-1,0.8-1.3,1.5
		c-0.1,0.4-0.3,1.1-0.3,2.1v1.5h-2.1v1.8h2.1v12.3h2.4V174.4z M394.3,163.3c0.8-0.8,1.8-1.4,2.9-1.4s2.1,0.4,2.9,1.4
		c0.8,0.8,1.3,2.2,1.3,3.9c0,1.8-0.4,3.2-1.3,4.2c-0.8,0.8-1.8,1.4-2.9,1.4c-1.3,0-2.2-0.4-2.9-1.4c-0.8-0.8-1.3-2.2-1.3-4
		C393.1,165.7,393.5,164.3,394.3,163.3 M392.5,172.9c1.3,1.3,2.8,2,4.7,2c1.3,0,2.4-0.3,3.3-0.8c1-0.6,1.8-1.4,2.4-2.4
		c0.6-1,0.8-2.5,0.8-4.3c0-2.2-0.6-4-1.8-5.3c-1.3-1.3-2.8-2-4.7-2c-1.8,0-3.2,0.6-4.5,1.5c-1.4,1.3-2.2,3.2-2.2,5.9
		C390.7,169.8,391.3,171.6,392.5,172.9 M371.3,174.4v-7.7c0-1.8,0.4-3.1,1.1-3.6c0.7-0.7,1.7-1,2.6-1c0.7,0,1.3,0.1,1.7,0.4
		c0.4,0.3,0.8,0.7,1,1.1c0.1,0.4,0.3,1.3,0.3,2.2v8.6h2.4v-8.6c0-1.1,0-1.8-0.1-2.4c-0.1-0.7-0.4-1.3-0.7-1.8
		c-0.4-0.6-0.8-0.8-1.5-1.3c-0.7-0.3-1.5-0.4-2.4-0.4c-2,0-3.5,0.8-4.5,2.4v-2h-2.1v14.1h2.2V174.4z M356,163.3
		c0.8-0.8,1.8-1.4,2.9-1.4c1.1,0,2.1,0.4,2.9,1.4c0.8,0.8,1.3,2.2,1.3,3.9c0,1.8-0.4,3.2-1.1,4.2c-0.8,0.8-1.8,1.4-2.9,1.4
		s-2.2-0.4-2.9-1.4c-0.8-0.8-1.1-2.2-1.1-4C354.9,165.7,355.3,164.3,356,163.3 M354.2,172.9c1.3,1.3,2.8,2,4.7,2
		c1.3,0,2.4-0.3,3.3-0.8s1.8-1.4,2.4-2.4c0.6-1,0.8-2.5,0.8-4.3c0-2.2-0.6-4-1.8-5.3c-1.3-1.3-2.8-2-4.7-2c-1.8,0-3.2,0.6-4.5,1.5
		c-1.4,1.3-2.2,3.2-2.2,5.9C352.4,169.8,353.1,171.6,354.2,172.9 M349.2,160.4h-2.4v14.1h2.4V160.4z M349.2,154.9h-2.4v2.8h2.4
		V154.9z M342.9,172.3c-0.4,0-0.7,0-0.8-0.1c-0.1-0.1-0.3-0.3-0.4-0.4c-0.1-0.1-0.1-0.7-0.1-1.3v-8.2h2.4v-1.8h-2.4v-4.9l-2.4,1.4
		v3.5h-1.8v1.8h1.8v8.1c0,1.4,0.1,2.4,0.3,2.8c0.1,0.4,0.6,0.8,1,1.1c0.4,0.3,1.1,0.4,2,0.4c0.6,0,1.1-0.1,1.8-0.3l-0.3-2.1
		C343.4,172.3,343.2,172.3,342.9,172.3 M332.3,168.3c0,1.1-0.1,1.8-0.4,2.4c-0.3,0.7-0.8,1.3-1.5,1.7c-0.7,0.4-1.5,0.6-2.5,0.6
		s-1.7-0.1-2.1-0.7c-0.4-0.4-0.7-1-0.7-1.5c0-0.4,0.1-0.8,0.3-1.1c0.3-0.3,0.6-0.6,1-0.8c0.4-0.1,1.1-0.3,2.1-0.4
		c1.7-0.3,3.1-0.6,3.9-0.8V168.3L332.3,168.3z M333,174.4h2.5c-0.3-0.6-0.6-1.1-0.6-1.7c-0.1-0.6-0.1-2-0.1-4.2v-3.2
		c0-1.1,0-1.8-0.1-2.2c-0.1-0.7-0.4-1.3-0.7-1.7c-0.4-0.4-1-0.8-1.7-1.1c-0.7-0.3-1.7-0.4-2.9-0.4c-1.3,0-2.2,0.1-3.2,0.6
		c-1,0.3-1.7,0.8-2.1,1.4c-0.4,0.6-0.8,1.4-1,2.4l2.4,0.3c0.3-1,0.7-1.7,1.3-2.1c0.6-0.4,1.4-0.6,2.5-0.6c1.3,0,2.1,0.3,2.6,0.8
		c0.4,0.4,0.7,1.1,0.7,2.1c0,0.1,0,0.3,0,0.7c-1,0.3-2.4,0.6-4.3,0.8c-1,0.1-1.7,0.3-2.1,0.4c-0.7,0.1-1.3,0.4-1.7,0.8
		c-0.6,0.4-1,0.8-1.3,1.4c-0.3,0.6-0.4,1.3-0.4,2c0,1.1,0.4,2.1,1.3,2.9c0.8,0.7,2.1,1.1,3.6,1.1c1,0,1.8-0.1,2.6-0.4
		c0.8-0.3,1.7-0.8,2.5-1.5C332.6,173.3,332.7,174,333,174.4 M319.3,160.4h-2.4v14.1h2.4V160.4z M319.3,154.9h-2.4v2.8h2.4V154.9z
		 M310.7,171.9c-0.7,0.6-1.4,0.8-2.4,0.8c-1.1,0-2.1-0.4-2.8-1.3c-0.7-0.8-1.1-2.2-1.1-4.2c0-1.8,0.4-3.2,1.1-4
		c0.7-0.8,1.7-1.3,2.9-1.3c0.8,0,1.5,0.3,2.1,0.7s1,1.3,1.1,2.1l2.4-0.4c-0.3-1.4-0.8-2.5-1.8-3.3c-1-0.8-2.2-1.1-3.8-1.1
		c-1.3,0-2.4,0.3-3.3,0.8c-1,0.6-1.8,1.4-2.4,2.5c-0.6,1.1-0.7,2.5-0.7,4c0,2.4,0.6,4.2,1.8,5.4c1.3,1.3,2.6,2,4.6,2
		c1.5,0,2.8-0.4,3.9-1.4c1.1-1,1.7-2.2,2-3.8l-2.4-0.3C311.6,170.5,311.2,171.4,310.7,171.9 M289.8,163.3c0.8-0.8,1.8-1.4,2.9-1.4
		c1.1,0,2.1,0.4,2.9,1.4c0.8,0.8,1.3,2.2,1.3,3.9c0,1.8-0.4,3.2-1.3,4.2c-0.8,0.8-1.8,1.4-2.9,1.4c-1.3,0-2.2-0.4-2.9-1.4
		c-0.8-0.8-1.3-2.2-1.3-4C288.5,165.7,288.9,164.3,289.8,163.3 M287.9,172.9c1.3,1.3,2.8,2,4.7,2c1.3,0,2.4-0.3,3.3-0.8
		s1.8-1.4,2.4-2.4c0.6-1,0.8-2.5,0.8-4.3c0-2.2-0.6-4-1.8-5.3c-1.3-1.3-2.8-2-4.7-2c-1.8,0-3.2,0.6-4.5,1.5
		c-1.4,1.3-2.2,3.2-2.2,5.9C286.1,169.8,286.7,171.6,287.9,172.9 M273.9,173.6c1,0.7,2.4,1.1,4.2,1.1c1.1,0,2.1-0.1,2.9-0.6
		c0.8-0.4,1.5-1,2-1.7c0.4-0.7,0.7-1.4,0.7-2.2c0-0.8-0.1-1.5-0.6-2.1c-0.4-0.6-0.8-1-1.5-1.3c-0.7-0.3-1.8-0.7-3.5-1.1
		c-1.1-0.3-1.8-0.6-2.1-0.6c-0.4-0.1-0.7-0.4-1-0.7c-0.1-0.3-0.3-0.6-0.3-0.8c0-0.4,0.3-1,0.7-1.3c0.4-0.3,1.3-0.6,2.4-0.6
		c1,0,1.7,0.1,2.1,0.6c0.4,0.4,0.8,1,1,1.7l2.4-0.3c-0.1-1-0.4-1.7-0.8-2.2c-0.4-0.6-1-1-1.8-1.3s-1.8-0.4-2.9-0.4
		c-0.7,0-1.4,0.1-2.1,0.3c-0.7,0.1-1.1,0.4-1.5,0.7c-0.6,0.4-0.8,0.8-1.1,1.4c-0.3,0.6-0.4,1.1-0.4,1.8c0,0.7,0.1,1.3,0.6,2
		c0.4,0.7,0.8,1,1.5,1.4c0.7,0.4,2,0.7,3.6,1.1c1.3,0.3,2.1,0.6,2.4,0.8c0.4,0.3,0.7,0.7,0.7,1.3c0,0.6-0.3,1.1-0.8,1.5
		c-0.6,0.4-1.4,0.7-2.4,0.7s-2-0.3-2.5-0.7c-0.6-0.6-1-1.3-1.1-2.2l-2.4,0.4C272.2,171.8,272.9,172.9,273.9,173.6 M259.6,173.6
		c1,0.7,2.4,1.1,4.2,1.1c1.1,0,2.1-0.1,2.9-0.6c0.8-0.4,1.5-1,2-1.7c0.4-0.7,0.7-1.4,0.7-2.2c0-0.8-0.1-1.5-0.6-2.1
		c-0.4-0.6-1-1-1.5-1.3c-0.7-0.3-1.8-0.7-3.5-1.1c-1.1-0.3-1.8-0.6-2.1-0.6c-0.4-0.1-0.7-0.4-1-0.7c-0.1-0.3-0.3-0.6-0.3-0.8
		c0-0.4,0.3-1,0.7-1.3c0.4-0.4,1.3-0.6,2.4-0.6c1,0,1.7,0.1,2.1,0.6c0.4,0.4,0.8,1,1,1.7l2.4-0.3c-0.1-1-0.4-1.7-0.8-2.2
		c-0.4-0.6-1-1-1.8-1.3s-1.8-0.4-2.9-0.4c-0.7,0-1.4,0.1-2.1,0.3c-0.7,0.1-1.1,0.4-1.5,0.7c-0.6,0.4-0.8,0.8-1.1,1.4
		c-0.3,0.6-0.4,1.1-0.4,1.8c0,0.7,0.1,1.3,0.6,2c0.4,0.6,0.8,1,1.5,1.4c0.7,0.3,2,0.7,3.6,1.1c1.3,0.3,2.1,0.6,2.4,0.8
		c0.4,0.3,0.7,0.7,0.7,1.3c0,0.6-0.3,1.1-0.8,1.5c-0.6,0.4-1.4,0.7-2.4,0.7c-1,0-2-0.3-2.5-0.7c-0.6-0.6-1-1.3-1.1-2.2l-2.4,0.4
		C258.1,171.8,258.7,172.9,259.6,173.6 M246,160.8c0.4-1.3,0.8-2.5,1-3.8c0.3,1.1,0.7,2.4,1.4,4l2.1,5.4h-6.6L246,160.8z M241,174.4
		l2.1-5.9h8.1l2.2,5.9h2.9l-7.9-19.5h-2.8l-7.5,19.5H241z"/>
	<g>
		
			<linearGradient id="SVGID_1_" gradientUnits="userSpaceOnUse" x1="254.6833" y1="-913.0517" x2="254.6833" y2="-756.3071" gradientTransform="matrix(0.7071 0.7071 -0.7071 0.7071 -650.9954 529.6647)">
			<stop  offset="0" style="stop-color:#2124C1"/>
			<stop  offset="1" style="stop-color:#00D8FF"/>
		</linearGradient>
		<path class="st0" d="M107.9,168.3c-3.1,0.4-6.3,0.7-9.5,0.7c-34.9,0-63.6-25.8-68.2-59.4c4.3,45,38.9,81.2,83.1,87.8
			c47.3-7.1,83.5-48,83.5-97.3c0-5-0.4-10-1.1-14.9C189.1,129.4,153,164,107.9,168.3z"/>
		
			<linearGradient id="SVGID_00000132797852307610604830000008897615936119552922_" gradientUnits="userSpaceOnUse" x1="127.3466" y1="-793.2964" x2="245.1728" y2="-911.1225" gradientTransform="matrix(0.7071 0.7071 -0.7071 0.7071 -650.9954 529.6647)">
			<stop  offset="0" style="stop-color:#2124C1"/>
			<stop  offset="1" style="stop-color:#00D8FF"/>
		</linearGradient>
		<path style="fill:url(#SVGID_00000132797852307610604830000008897615936119552922_);" d="M89,31.8c3.1-0.4,6.3-0.7,9.5-0.7
			c34.9,0,63.6,25.8,68.2,59.4c-4.3-45-38.9-81.2-83.1-87.8C36.3,9.9,0,50.6,0,100c0,5,0.4,10,1.1,14.9C7.8,70.6,43.9,36.1,89,31.8z
			"/>
		
			<linearGradient id="SVGID_00000176023019271007786540000005165711997511216276_" gradientUnits="userSpaceOnUse" x1="185.6245" y1="-932.5251" x2="303.4508" y2="-814.699" gradientTransform="matrix(0.7071 0.7071 -0.7071 0.7071 -650.9954 529.6647)">
			<stop  offset="0" style="stop-color:#2124C1"/>
			<stop  offset="1" style="stop-color:#00D8FF"/>
		</linearGradient>
		<path style="fill:url(#SVGID_00000176023019271007786540000005165711997511216276_);" d="M166.6,90.5c0.4,3.1,0.7,6.3,0.7,9.5
			c0,34.9-25.8,63.6-59.4,68.2c45-4.3,81.2-38.9,87.8-83.1c-7.1-47.3-48-83.5-97.3-83.5c-5,0-10,0.4-14.9,1.1
			C127.9,9.3,162.3,45.5,166.6,90.5z"/>
		
			<linearGradient id="SVGID_00000176036673612969305980000005270696050357283752_" gradientUnits="userSpaceOnUse" x1="305.472" y1="-805.2435" x2="148.6781" y2="-805.2435" gradientTransform="matrix(0.7071 0.7071 -0.7071 0.7071 -650.9954 529.6647)">
			<stop  offset="0" style="stop-color:#2124C1"/>
			<stop  offset="1" style="stop-color:#00D8FF"/>
		</linearGradient>
		<path style="fill:url(#SVGID_00000176036673612969305980000005270696050357283752_);" d="M30.1,109.5c-0.4-3.1-0.7-6.3-0.7-9.5
			c0-34.9,25.8-63.6,59.4-68.2c-44.9,4.3-81,38.8-87.7,83.1c7.1,47.3,48,83.5,97.3,83.5c5,0,10-0.4,14.9-1.1
			C69,190.6,34.4,154.5,30.1,109.5z"/>
	</g>
	<g>
		<path d="M397.3,25.2h-38.1c-1.1,0-1.5,0.4-1.5,1.5v106.9c0,1.1,0.4,1.5,1.5,1.5h10c1.1,0,1.5-0.4,1.5-1.5V86.6h26.5
			c23.6,0,35.8-11.3,35.8-30.7C433.1,36.5,420.8,25.2,397.3,25.2z M399.2,74h-28.4V37.8h28.4c13.5,0,19.9,5.7,19.9,18.1
			C419.3,68.3,412.7,74,399.2,74z"/>
		<path d="M635.4,25.2h-10c-1.1,0-1.5,0.4-1.5,1.5v68.7c0,18.7-9.5,28.7-26.5,28.7s-26.5-10-26.5-28.7V26.8c0-1.1-0.4-1.5-1.5-1.5
			h-10c-1.1,0-1.5,0.4-1.5,1.5v70.4c0,25.1,17.2,39.6,39.6,39.6c22.4,0,39.6-14.5,39.6-39.6V26.8C637.1,25.8,636.5,25.2,635.4,25.2z
			"/>
		<path d="M511.7,84.8c13.9-3.9,21.1-14.1,21.1-28.9c0-19.4-12.3-30.7-35.8-30.7h-38.1c-1.1,0-1.5,0.4-1.5,1.5v106.9
			c0,1.1,0.4,1.5,1.5,1.5h10c1.1,0,1.5-0.4,1.5-1.5V86.6H497c0.3,0,0.4,0,0.7,0l22.4,47.3c0.7,1.1,1.1,1.5,2.2,1.5h11
			c1.1,0,1.7-0.4,1.3-1.5L511.7,84.8z M470.5,37.8h28.4c13.5,0,19.9,5.7,19.9,18.1S512.4,74,498.9,74h-28.4V37.8z"/>
		<path d="M296.2,26.8c-0.4-1.1-1-1.5-2.4-1.5h-12c-1.4,0-1.8,0.4-2.4,1.5l-39,106c-0.7,1.5,0,2.5,1.5,2.5h10.6
			c1.3,0,1.5-0.4,1.8-1.5l10.9-30.4l1.5-4.2h42l1.5,4.2l10.9,30.4c0.3,1.1,0.7,1.5,1.8,1.5h10.6c1.5,0,2.2-1,1.5-2.5L296.2,26.8z
			 M287.8,41.1l16.5,45.5h-32.9L287.8,41.1z"/>
	</g>
</g>
</svg>
