<svg width="147" height="52" fill="none" xmlns="http://www.w3.org/2000/svg">
  <path fill="#181818" d="M77.618 19.128c-4.503 0-5.697-2.2-5.697-4.988V9.514c0-3.05.85-5.655 6.02-5.655 2.655 0 3.934.87 4.196 1.131.223.222-.546 1.818-.83 1.636-.509-.362-1.407-.87-3.225-.87-2.514 0-3.649.83-3.649 3.84v4.334c0 2.443.851 3.432 3.143 3.432 1.824 0 2.737-.566 2.737-2.57v-1.9c0-.234-.022-.425-.385-.425l-1.379-.019c-.284 0-.403-.02-.403-.343v-1.012c0-.2 0-.362.281-.362h3.319c.811 0 .912.142.912.827v2.839c0 2.2-.488 4.726-5.047 4.726M89.631 5.92h-1.876c-.305.02-.366.202-.366.363v4.122c0 .362.082.383.406.383h2.488c1.44 0 2.533-.77 2.533-2.405 0-1.836-1.459-2.462-3.18-2.462h-.005Zm2.944 6.22c-.284.082-.284.061-.162.304l2.795 5.715c.263.544.223.701-.183.701h-1.803c-.366 0-.427-.163-.589-.547L90.037 12.9a.316.316 0 0 0-.345-.201h-2.087c-.223 0-.223.06-.223.322v5.192c0 .526-.122.647-.488.647h-1.583c-.445 0-.406-.234-.406-.7V4.607c0-.386.061-.526.488-.526h4.34c3.627 0 5.553 1.575 5.553 4.301 0 2.122-1.581 3.475-2.716 3.757m12.527-3.13c0-2.201-1.014-3.17-2.96-3.17-2.392 0-3.204 1.13-3.204 3.252v5.27c0 2.061 1.663 2.767 3.162 2.767 1.641 0 3.002-.505 3.002-3.15v-4.97Zm-3.002 10.12c-2.006 0-5.554-.424-5.554-4.242V8.93c0-3.616 1.764-5.07 5.495-5.07 3.002 0 5.514 1.131 5.514 5.01v5.392c0 4.746-3.711 4.867-5.455 4.867Zm12.06 0c-2.289 0-5.16-.99-5.16-4.505V4.608c0-.383.08-.505.343-.526h1.543c.342 0 .506.143.506.666v9.112c0 2.08 1.136 3.252 2.756 3.252 2.252 0 2.798-1.273 2.798-3.292V4.608c0-.383.082-.505.345-.526h1.581c.344 0 .509.143.509.666v9.533c0 4.243-3.049 4.848-5.233 4.848m11.553-13.207h-1.876c-.305.02-.366.2-.366.362v4.988c0 .344.082.386.406.386h2.453c1.461 0 2.554-.87 2.554-2.991 0-1.958-1.438-2.745-3.162-2.745h-.009Zm.394 7.654h-2.31c-.284 0-.326.06-.326.404v4.24c0 .526-.12.648-.486.648h-1.58c-.446 0-.406-.234-.406-.701V4.616c0-.384.061-.526.488-.526h4.32c3.731 0 5.556 1.575 5.556 4.687s-1.743 4.806-5.272 4.806M80.467 26.759c0-2.201-1.013-3.17-2.96-3.17-2.392 0-3.201 1.13-3.201 3.252v5.27c0 2.062 1.66 2.767 3.161 2.767 1.642 0 3-.505 3-3.15v-4.97Zm-3 10.12c-2.007 0-5.556-.426-5.556-4.242v-5.96c0-3.614 1.764-5.068 5.495-5.068 3 0 5.514 1.131 5.514 5.01v5.392c0 4.746-3.71 4.867-5.453 4.867m14.29-13.188h-4.48c-.445 0-.527.16-.527.324v3.958c0 .383.122.467.446.467h3.893c.567 0 .65.12.607.363l-.08 1.151c-.082.405-.548.363-.954.363h-3.405c-.385 0-.47.142-.47.486v5.453c0 .283-.119.362-.323.362h-1.623c-.263 0-.424-.14-.424-.584V22.498c0-.383.02-.666.384-.666h7.1c.485 0 .546.121.546.322v1.122c0 .362-.204.423-.69.423m13.826 12.916h-7.704c-.263 0-.47-.14-.47-.584V22.498c0-.383.02-.666.385-.666h7.339c.488 0 .549.04.549.322v1.192c0 .325-.366.325-.939.325h-4.493c-.446 0-.528.161-.528.322v3.489c0 .385.122.467.446.467h4.015c.567 0 .65.1.61.362l-.143 1.133c-.061.423-.568.383-.953.383h-3.367c-.425 0-.566.122-.566.468v3.962c0 .468.235.444.587.444h4.906c.528 0 .751.06.751.383v1.169c0 .282-.223.362-.425.362m3.81 0h-1.563c-.363 0-.469-.12-.469-.566V22.276c0-.383.103-.444.549-.444h1.499c.366 0 .406.121.406.565v13.755c0 .344-.061.467-.424.467m7.628.259c-4.5 0-5.696-2.2-5.696-4.988v-4.626c0-3.05.851-5.655 6.02-5.655 2.657 0 3.933.87 4.196 1.131.234.234-.547 1.818-.831 1.636-.506-.365-1.407-.867-3.222-.867-2.514 0-3.652.827-3.652 3.836v4.323c0 2.444.852 3.432 3.143 3.432 1.827 0 2.739-.565 2.739-2.57v-1.897c0-.222-.021-.425-.387-.425l-1.376-.02c-.286 0-.406-.02-.406-.343v-1.009c0-.203 0-.364.284-.364h3.323c.811 0 .912.14.912.827v2.855c0 2.2-.485 4.726-5.047 4.726m16.922-.265h-1.522c-.324 0-.486-.14-.486-.584v-5.746c0-.362-.061-.404-.384-.404h-5.273c-.234 0-.323.021-.323.344v5.757c0 .525-.122.644-.608.644h-1.407c-.347 0-.427-.2-.427-.745V22.358c0-.386.08-.526.446-.526h1.459c.448 0 .549.14.549.666v5.07c0 .322.14.383.469.383h5.159c.235 0 .345-.1.345-.343v-5.232c0-.383.141-.544.568-.544h1.407c.469 0 .469.161.469.505V35.97c0 .526-.04.645-.446.645m11.82-12.905h-3.284c-.405 0-.469.061-.469.384v11.855c0 .526-.061.666-.506.666h-1.407c-.448 0-.528-.08-.528-.666V24.094c0-.323-.061-.384-.469-.384h-3.23c-.366 0-.426-.102-.426-.303v-1.253c0-.282.143-.322.569-.322h9.59c.404 0 .587.019.587.283v1.292c0 .182-.061.303-.427.303M75.272 40.846l-1.94 6.584h3.866l-1.926-6.584Zm3.896 10.76h-.542c-.235 0-.197-.082-.296-.426l-.921-3.014H73.09l-.903 3.014c-.1.344-.131.425-.314.425h-.575c-.148 0-.166-.016 0-.54l3.337-10.922c.115-.379.198-.526.47-.526h.38c.279 0 .36.147.468.526l3.338 10.923c.164.523.016.54-.15.54m4.917.216c-2.005 0-3.78-1.18-3.78-3.654v-8.122c0-.313.032-.41.114-.425H81c.115 0 .18.112.18.54v7.71c0 2.03 1.173 3.178 2.878 3.178 2.317 0 2.91-1.169 2.91-3.21v-7.793c0-.313.033-.41.115-.425h.62c.114 0 .18.112.18.54v7.729c0 3.145-1.857 3.932-3.813 3.932m8.687.014c-1.759 0-2.796-.393-3.255-.671-.164-.098.147-.918.344-.818a5.573 5.573 0 0 0 2.878.701c1.792 0 3.337-.556 3.337-2.26 0-1.424-.626-2.146-2.927-3.037-1.923-.754-3.173-1.588-3.173-3.488 0-1.262.969-2.818 3.83-2.818 1.841 0 2.317.246 2.648.362.33.117-.033.85-.263.77a7.36 7.36 0 0 0-2.303-.344c-2.3 0-2.974.867-2.974 2.128 0 1.376.838 1.949 2.892 2.734 2.58.983 3.206 2.147 3.206 3.505 0 2.324-1.972 3.24-4.24 3.24m12.477-11.421h-2.795c-.364 0-.38.049-.38.31v10.334c0 .426.033.542-.213.542h-.493c-.197 0-.213-.067-.213-.542V40.73c0-.261-.017-.31-.378-.31h-2.828c-.235 0-.296-.017-.296-.131v-.507c0-.133.016-.164.312-.164h7.235c.263 0 .326 0 .326.115v.556c0 .098-.063.13-.277.13Zm4.637-.048h-1.857c-.249.017-.298.164-.298.294v4.325c0 .311.066.311.328.311h2.484c1.546 0 2.629-.787 2.629-2.425 0-1.981-1.48-2.505-3.283-2.505h-.003Zm1.79 5.568c-.214.033-.235.033-.132.212l2.533 4.881c.263.524.165.573-.065.573h-.577c-.148 0-.235-.115-.378-.425l-2.448-4.963c-.066-.13-.148-.164-.315-.164h-2.333c-.197 0-.197.033-.197.278v4.748c0 .425-.017.523-.164.523h-.559c-.262 0-.234-.196-.234-.572V40.049c0-.311 0-.428.295-.428h2.73c2.78 0 4.306 1 4.306 3.21 0 1.77-1.381 2.933-2.467 3.112m8.574-5.097-1.94 6.584h3.863l-1.923-6.584Zm3.895 10.76h-.539c-.234 0-.197-.082-.295-.426l-.922-3.014h-4.308l-.906 3.014c-.098.344-.131.425-.312.425h-.574c-.148 0-.167-.016 0-.54l3.33-10.922c.117-.379.199-.526.469-.526h.378c.279 0 .361.147.469.526l3.337 10.923c.164.523.017.54-.148.54m8.143-.002h-5.753c-.197 0-.263-.098-.263-.572V40.05c0-.308.016-.425.246-.425h.427c.246 0 .246.117.246.542v10.38c0 .265.115.314.38.314h4.691c.265 0 .248.016.248.262v.245c0 .245 0 .245-.215.245m2.354-.008h-.575c-.131 0-.131-.081-.131-.408V39.895c0-.245.049-.278.312-.278h.361c.265 0 .235.052.235.395v11.234c0 .278 0 .36-.214.36m6.531-10.76-1.939 6.584h3.865l-1.926-6.584Zm3.896 10.76h-.542c-.234 0-.197-.082-.295-.426l-.922-3.014h-4.306l-.903 3.014c-.101.344-.134.425-.312.425h-.577c-.148 0-.164-.016 0-.54l3.338-10.922c.115-.379.197-.526.469-.526h.377c.282 0 .361.147.469.526l3.345 10.923c.164.523.016.54-.15.54M.237 24.473 4.669 43.07l12.893-15.388-17.325-3.21Zm.226-.433 17.393 3.222L29.503.367.463 24.04ZM30.175 0 18.507 26.942l23.43-14.328L30.175 0Zm-11.72 27.52 20.887 12.113 2.68-26.524-23.567 14.412Zm24.038-14.387L39.81 39.687l24.651-8.061-21.968-18.493ZM40 40.114 53.381 52l11.056-19.88L40 40.114ZM18.051 27.828 5.098 43.286l33.7-3.428-20.747-12.03ZM47.317.441l-4.733 12.152 21.528 18.124L47.317.441Z"/>
</svg>
