<?xml version="1.0" encoding="UTF-8"?>
<svg width="270px" height="190px" version="1.1" viewBox="0 0 270 190" xml:space="preserve" xmlns="http://www.w3.org/2000/svg" xmlns:cc="http://creativecommons.org/ns#" xmlns:dc="http://purl.org/dc/elements/1.1/" xmlns:rdf="http://www.w3.org/1999/02/22-rdf-syntax-ns#">
 <!-- Generator: Sketch 48.2 (47327) - http://www.bohemiancoding.com/sketch --><title>Group</title><desc>Created with Sketch.</desc><g fill="#1b3140" fill-rule="evenodd"><path d="m163.48 105.95 0.146-0.18 26.348-32.499c7.577-9.172 13.552-20.537 13.552-33.098 0-2.567-0.233-5.046-0.678-7.425-1.684-9.012-9.542-15.567-18.71-15.62-0.074-1e-3 -0.148-1e-3 -0.222-1e-3 -9.156 0-18.243 3.585-25.689 10.116 0.342-0.018 0.687-0.03 1.036-0.03 10.368 0 16.349 5.982 16.349 12.96 0 4.985-3.389 10.168-6.978 14.754l-47.385 58.613c-3.113 3.73-4.255 7.73-4.255 10.773 0 5.782 3.589 9.371 8.972 9.371h26.98c0.089-9.656 3.42-19.035 10.534-27.734"/><path d="m243.58 59.848c-0.6 0.741-1.248 1.429-1.937 2.063v57.812c0 7.709 6.248 13.957 13.956 13.957s13.957-6.248 13.957-13.957v-91.953z"/><path d="m16.198 179.37v-17.466h5.796v17.466c0 6.151-4.929 10.093-10.488 10.093-5.598 0-10.566-3.942-10.566-10.093v-17.466h5.875v17.466c0 2.799 2.247 4.652 4.691 4.652 2.405 0 4.692-1.853 4.692-4.652"/><polygon points="27.28 189.07 27.28 161.91 32.563 161.91 41.867 178.15 41.867 161.91 47.663 161.91 47.663 189.07 42.498 189.07 33.036 172.63 33.036 189.07"/><polygon points="53.949 189.07 59.705 189.07 59.705 161.91 53.949 161.91"/><polygon points="77.344 189.07 72.219 189.07 63.939 161.91 69.932 161.91 74.781 179.73 79.591 161.91 85.623 161.91"/><polygon points="94.946 173.18 104.96 173.18 104.96 178.19 94.946 178.19 94.946 183.99 106.73 183.99 106.73 189.07 89.19 189.07 89.19 161.91 106.38 161.91 106.38 166.99 94.946 166.99"/><path d="m131.66 189.07h-6.939l-6.071-9.383h-1.302v9.383h-5.795v-27.164h11.118c6.15 0 9.028 4.455 9.028 8.91 0 3.864-2.129 7.649-6.781 8.634zm-14.312-22.078v7.648h4.889c2.247 0 3.43-2.05 3.43-3.824 0-1.695-1.104-3.824-3.272-3.824z"/><path d="m141.43 181.11c0.079 1.734 1.459 3.272 4.061 3.272 2.326 0 3.942-1.104 3.982-2.878 0.039-1.222-0.513-2.286-3.272-3.075l-3.273-0.907c-5.993-1.853-7.018-5.362-7.018-7.806 0-4.849 4.14-8.122 9.344-8.122 5.244 0 9.186 3.115 9.186 8.319h-5.756c0-1.813-1.222-3.075-3.509-3.075-2.01 0-3.508 1.104-3.508 2.72 0 0.71 0.275 2.011 2.917 2.76l3.233 1.025c6.584 1.892 7.53 5.599 7.452 8.2-0.079 5.402-4.968 7.965-9.778 7.965-5.914 0-9.857-3.509-9.857-8.398z"/><polygon points="159.58 189.07 165.34 189.07 165.34 161.91 159.58 161.91"/><polygon points="182.32 189.07 176.48 189.07 176.48 167.11 169.15 167.11 169.15 161.91 189.65 161.91 189.65 167.11 182.32 167.11"/><path d="m196.33 182.65-2.405 6.426h-6.15l10.093-27.164h6.268l10.054 27.164h-6.072l-2.405-6.426zm7.53-5.007-2.878-9.462-2.76 9.462z"/><path d="m220.54 181.11c0.079 1.734 1.459 3.272 4.061 3.272 2.326 0 3.942-1.104 3.982-2.878 0.039-1.222-0.513-2.286-3.273-3.075l-3.272-0.907c-5.993-1.853-7.018-5.362-7.018-7.806 0-4.849 4.14-8.122 9.344-8.122 5.244 0 9.186 3.115 9.186 8.319h-5.756c0-1.813-1.222-3.075-3.509-3.075-2.01 0-3.509 1.104-3.509 2.72 0 0.71 0.277 2.011 2.918 2.76l3.233 1.025c6.584 1.892 7.53 5.599 7.452 8.2-0.079 5.402-4.968 7.965-9.778 7.965-5.914 0-9.857-3.509-9.857-8.398z"/><path d="m91.908 0.4943c-7.705 0-13.951 6.246-13.951 13.951v64.773c0.805 17.669-11.247 26.023-24.701 26.559-6.954 0.012-10.851-2.006-14.978-5.281 2.345 5.273 5.813 9.778 9.631 14.055 23.594 26.438 57.95 2.796 57.95-34.511v-65.595c0-7.705-6.246-13.951-13.951-13.951"/></g><g fill="#57d59b" fill-opacity=".86667" fill-rule="evenodd"><path d="m125.49 46.95c8.374 2.393 13.366-1.748 16.948-8.175 1.461-2.447 3.809-6.041 3.809-6.041 2.124-3.056 4.688-5.982 7.701-8.741 10.878-9.961 25.115-14.09 38.124-11.275-7.863-7.718-19.076-12.224-31.291-12.224-21.135 0-36.487 11.365-43.067 30.107-2.393 7.576 1.396 14.555 7.776 16.349"/><path d="m193.38 105.77h-22.637c-0.678 0.683-1.337 1.393-1.977 2.129-6.097 7.014-9.59 14.649-10.383 22.694-0.102 1.029-0.155 2.06-0.167 3.091h35.339c7.744 0 14.014-6.306 13.956-14.063-0.056-7.695-6.435-13.851-14.131-13.851"/><path d="m44.176 118.28c-9.641-9.661-15.052-22.737-15.314-36.36-0.012-0.321-0.02-0.642-0.02-0.966v-66.505c0-7.705-6.246-13.951-13.951-13.951s-13.951 6.246-13.951 13.951v66.432c0 13.995 5.44 27.493 15.327 37.399 9.912 9.932 23.102 15.403 37.132 15.403 4.782 0 9.465-0.636 13.955-1.867-8.684-2.381-16.643-6.988-23.178-13.536"/><path d="m219.86 58.594c-5.99-4.851-6.914-13.639-2.063-19.63l26.963-33.296c4.851-5.991 13.639-6.914 19.63-2.064 5.99 4.851 6.914 13.64 2.063 19.63l-26.963 33.297c-4.851 5.99-13.64 6.914-19.63 2.063"/><polygon points="261.81 165.65 269.56 161.76 269.56 189.07 263.8 189.07 263.8 169.78 261.81 170.71"/><path d="m258.09 169.78v-5e-3 -0.06c0-4.849-3.826-8.121-8.637-8.121-4.846 0-8.491 3.114-8.491 8.319h5.321c0-1.814 1.13-3.076 3.243-3.076 1.859 0 3.243 1.104 3.243 2.721 0 0.069-2e-3 0.143-9e-3 0.222h7e-3c0 1.029-0.571 2.098-1.331 3.044l-10.229 13.123v3.126h16.199v-5.43h-7.681l5.741-7.034c1.521-1.851 2.624-4.237 2.624-6.829"/></g><metadata><rdf:RDF><cc:Work rdf:about=""><dc:title>Group</dc:title></cc:Work></rdf:RDF></metadata></svg>
