<?xml version="1.0" encoding="utf-8"?>
<!-- Generator: Adobe Illustrator 25.0.1, SVG Export Plug-In . SVG Version: 6.00 Build 0)  -->
<svg version="1.1" id="Layer_1" xmlns="http://www.w3.org/2000/svg" xmlns:xlink="http://www.w3.org/1999/xlink" x="0px" y="0px"
	 viewBox="0 0 164.2 76" style="enable-background:new 0 0 164.2 76;" xml:space="preserve">
<style type="text/css">
	.st0{fill:#C61E22;}
	.st1{fill:#091C3D;}
</style>
<g>
	<g>
		<polygon class="st0" points="106.8,23 103.5,11.6 100.5,11.6 97.2,23 94.1,11.6 90.4,11.6 95.1,28.2 95.2,28.6 98.9,28.6 102,18 
			105.1,28.6 108.8,28.6 113.6,11.6 109.9,11.6 		"/>
		<path class="st0" d="M124.3,22.6c0,1.8-1,2.8-3,2.8c-2,0-3-1-3-2.8v-11h-3.5v11.2c0,3.6,2.6,6,6.5,6c3.9,0,6.5-2.4,6.5-6V11.6
			h-3.5V22.6z"/>
		<polygon class="st0" points="139.7,11.6 139.7,21.6 132.8,11.6 130.1,11.6 130.1,28.6 133.6,28.6 133.6,18.6 140.5,28.6 
			143.2,28.6 143.2,11.6 		"/>
	</g>
	<g>
		<path class="st1" d="M40.5,23.3c0.4-1.4,1.4-2.5,2.7-3.1l-4.4-15c-0.2,0-0.3,0.1-0.5,0.1c-0.5,0-0.9-0.1-1.4-0.2l-3.2,6.6
			c0.7,0.6,1.1,1.5,1.1,2.5c0,1.9-1.6,3.5-3.5,3.5c-1.2,0-2.3-0.6-2.9-1.5l-17.9,4.1L40.5,23.3z"/>
		<path class="st1" d="M16.5,33.1c1.1,0,2.1,0.5,2.8,1.4l21-8.6c0-0.2-0.1-0.5-0.1-0.7L10.1,22c-0.3,0.9-0.8,1.7-1.5,2.3l6.6,9.1
			C15.7,33.2,16.1,33.1,16.5,33.1z"/>
		<path class="st1" d="M40.5,54.7l-29.4,3.5c0,0.1,0,0.1,0,0.2l17.1,3c0.6-1.2,1.8-2,3.2-2c1.9,0,3.5,1.6,3.5,3.5c0,1-0.4,1.8-1,2.5
			l3.2,5.7c0.6-0.2,1.1-0.3,1.8-0.3c0.2,0,0.4,0,0.5,0.1l3.8-13.2C41.9,57,41,56,40.5,54.7z"/>
		<path class="st1" d="M40.5,51.5L19,39.1c-0.6,0.6-1.5,1-2.5,1c-0.2,0-0.4,0-0.6-0.1L9.3,53.8c0.8,0.7,1.3,1.5,1.6,2.5l29.3-3.4
			C40.3,52.4,40.3,52,40.5,51.5z"/>
		<path class="st1" d="M67.3,21.5l-16.6,3.2c0,0,0,0.1,0,0.1c0,2.5-1.8,4.7-4.2,5.1l-0.1,17.9c2.5,0.4,4.4,2.5,4.4,5.1
			c0,0.1,0,0.1,0,0.2l15.9,2.7c0.3-0.9,0.9-1.6,1.5-2.2l-6.9-13.6c-0.2,0-0.3,0.1-0.5,0.1c-1.9,0-3.5-1.6-3.5-3.5
			c0-1.9,1.6-3.5,3.5-3.5c0.4,0,0.9,0.1,1.2,0.2l6.6-10C68,22.9,67.6,22.2,67.3,21.5z"/>
		<path class="st1" d="M41,27.6l-21,8.6c0,0.1,0,0.3,0,0.4c0,0.3,0,0.6-0.1,0.9l21.4,12.4c0.8-1,1.8-1.7,3.1-1.9L44.5,30
			C43.1,29.7,41.8,28.8,41,27.6z"/>
		<path class="st1" d="M9.9,18.3l17.9-4c0-0.1,0-0.1,0-0.2c0-1.9,1.6-3.5,3.5-3.5c0.3,0,0.5,0,0.8,0.1l3.1-6.5
			C34,3.2,33.1,1.7,33.1,0C22.5,1.5,13.2,7.3,7.2,15.6C8.4,16.1,9.4,17.1,9.9,18.3z"/>
		<path class="st1" d="M74.2,24.4c-0.6,0.3-1.3,0.4-2,0.4c-0.7,0-1.4-0.1-2-0.4l-6.6,10.1c0.5,0.6,0.7,1.3,0.7,2.1
			c0,1.1-0.5,2-1.3,2.7l6.8,13.5c0.5-0.2,1.1-0.3,1.7-0.3c0.8,0,1.5,0.2,2.2,0.5c2-4.6,3-9.7,3-15C76.7,33.2,75.8,28.6,74.2,24.4z"
			/>
		<path class="st1" d="M66.3,57.8l-16-2.8c-0.8,1.9-2.6,3.2-4.8,3.2c-0.2,0-0.4,0-0.5-0.1l-3.8,13.2c1.7,0.9,2.8,2.6,2.8,4.5
			c9.8-1.5,18.4-6.6,24.3-14C67.1,60.9,66.3,59.5,66.3,57.8z"/>
		<path class="st1" d="M45,19.7c0.1,0,0.3,0,0.4,0c2.2,0,4.1,1.3,4.8,3.2l16.7-3.2c0,0,0,0,0,0c0-1.8,0.9-3.4,2.3-4.3
			C63.2,7.1,54.1,1.4,43.6,0c0,2-1.2,3.8-2.9,4.6L45,19.7z"/>
		<path class="st1" d="M7.7,52.8l6.5-13.6c-0.7-0.6-1.2-1.6-1.2-2.6c0-0.8,0.3-1.6,0.8-2.2l-6.7-9.2c-0.6,0.2-1.2,0.4-1.9,0.4
			c-1.1,0-2-0.3-2.9-0.9C0.8,28.9,0,33.3,0,38c0,5.4,1.1,10.6,3.2,15.3c0.8-0.5,1.7-0.8,2.7-0.8C6.5,52.5,7.1,52.6,7.7,52.8z"/>
		<path class="st1" d="M35.4,72.1l-3.2-5.7c-0.3,0.1-0.5,0.1-0.8,0.1c-1.8,0-3.3-1.4-3.5-3.2l-17.3-3.1c-0.4,0.8-1.1,1.5-1.9,2
			c6.1,7.5,14.9,12.6,24.9,13.8c0,0,0,0,0,0C33.6,74.4,34.3,73,35.4,72.1z"/>
	</g>
	<g>
		<polygon points="100.8,35 99.1,41.2 97.2,35 96.3,35 94.5,41.2 92.7,35 91.9,35 94,42.2 94.9,42.2 96.8,35.9 98.7,42.2 99.5,42.2 
			101.6,35 		"/>
		<path d="M106.7,42.3c2.1,0,3.7-1.7,3.7-3.7c0-2.1-1.6-3.7-3.7-3.7c-2.1,0-3.7,1.7-3.7,3.7C103,40.6,104.6,42.3,106.7,42.3z
			 M106.7,35.5c1.7,0,3,1.3,3,3c0,1.7-1.3,3-3,3c-1.7,0-3-1.3-3-3C103.7,36.9,105,35.5,106.7,35.5z"/>
		<path d="M113.4,39.3h2l1.7,2.9h0.8l-1.8-3c0.9-0.3,1.6-1.1,1.6-2.1c0-1.2-1-2.2-2.2-2.2h-2.9v7.2h0.7V39.3z M113.4,35.6h2.2
			c0.8,0,1.4,0.7,1.4,1.5c0,0.8-0.6,1.5-1.4,1.5h-2.2V35.6z"/>
		<polygon points="124.1,41.5 120.8,41.5 120.8,35 120,35 120,42.2 124.1,42.2 		"/>
		<path d="M132.2,38.6c0-2-1.4-3.6-3.4-3.6h-2.8v7.2h2.8C130.8,42.2,132.2,40.6,132.2,38.6z M126.8,35.6h2.1c1.6,0,2.7,1.3,2.7,2.9
			c0,1.6-1.1,2.9-2.7,2.9h-2.1V35.6z"/>
		<polygon points="143.4,35 142.7,35 140.9,41.2 139,35 138.2,35 136.3,41.2 134.5,35 133.7,35 135.8,42.2 136.7,42.2 138.6,35.9 
			140.5,42.2 141.3,42.2 		"/>
		<rect x="145.5" y="35" width="0.7" height="7.2"/>
		<path d="M155.2,38.6c0-2-1.4-3.6-3.4-3.6H149v7.2h2.8C153.8,42.2,155.2,40.6,155.2,38.6z M151.8,41.5h-2.1v-5.8h2.1
			c1.6,0,2.7,1.3,2.7,2.9C154.5,40.2,153.4,41.5,151.8,41.5z"/>
		<polygon points="161.6,41.5 158.1,41.5 158.1,38.9 161.3,38.9 161.3,38.2 158.1,38.2 158.1,35.6 161.6,35.6 161.6,35 157.4,35 
			157.4,42.2 161.6,42.2 		"/>
		<path d="M92.3,46.3v4.8c0,1.6,1.1,2.6,2.7,2.6c1.6,0,2.7-1,2.7-2.6v-4.8H97v4.8c0,1.1-0.7,1.9-2,1.9c-1.2,0-2-0.7-2-1.9v-4.8H92.3
			z"/>
		<polygon points="104.8,52.2 100.8,46.3 100.2,46.3 100.2,53.5 100.9,53.5 100.9,47.7 104.9,53.5 105.6,53.5 105.6,46.3 
			104.8,46.3 		"/>
		<rect x="108.3" y="46.3" width="0.7" height="7.2"/>
		<polygon points="114.3,53.5 117,46.3 116.2,46.3 114,52.6 111.7,46.3 111,46.3 113.6,53.5 		"/>
		<polygon points="119.6,50.2 122.8,50.2 122.8,49.6 119.6,49.6 119.6,47 123.1,47 123.1,46.3 118.9,46.3 118.9,53.5 123.1,53.5 
			123.1,52.8 119.6,52.8 		"/>
		<path d="M126,50.6h2l1.7,2.9h0.8l-1.8-3c0.9-0.3,1.6-1.1,1.6-2.1c0-1.2-1-2.2-2.2-2.2h-2.9v7.2h0.7V50.6z M126,47h2.2
			c0.8,0,1.4,0.7,1.4,1.5c0,0.8-0.6,1.5-1.4,1.5H126V47z"/>
		<path d="M137.2,51.6c0-1.3-1.2-1.7-2.5-2.1c-1-0.3-1.6-0.6-1.6-1.3c0-0.8,0.6-1.2,1.5-1.2c0.9,0,1.5,0.5,1.8,1.2l0.6-0.3
			c-0.4-0.9-1.2-1.6-2.4-1.6c-1.2,0-2.2,0.7-2.2,2c0,1.3,1.1,1.6,2.3,2c1.1,0.4,1.8,0.6,1.8,1.5c0,0.8-0.6,1.3-1.7,1.3
			c-1.1,0-1.8-0.6-2.1-1.4l-0.6,0.4c0.4,1.1,1.3,1.8,2.7,1.8C136.2,53.6,137.2,52.9,137.2,51.6z"/>
		<rect x="139.5" y="46.3" width="0.7" height="7.2"/>
		<polygon points="142.4,47 144.6,47 144.6,53.5 145.3,53.5 145.3,47 147.5,47 147.5,46.3 142.4,46.3 		"/>
		<rect x="149.8" y="46.3" width="0.7" height="7.2"/>
		<polygon points="153.8,50.2 157,50.2 157,49.6 153.8,49.6 153.8,47 157.3,47 157.3,46.3 153.1,46.3 153.1,53.5 157.3,53.5 
			157.3,52.8 153.8,52.8 		"/>
		<path d="M161.7,49.5c-1-0.3-1.6-0.6-1.6-1.3c0-0.8,0.6-1.2,1.5-1.2c0.9,0,1.5,0.5,1.8,1.2l0.6-0.3c-0.4-0.9-1.2-1.6-2.4-1.6
			c-1.2,0-2.2,0.7-2.2,2c0,1.3,1.1,1.6,2.3,2c1.1,0.4,1.8,0.6,1.8,1.5c0,0.8-0.6,1.3-1.7,1.3c-1.1,0-1.8-0.6-2.1-1.4l-0.6,0.4
			c0.4,1.1,1.3,1.8,2.7,1.8c1.4,0,2.4-0.8,2.4-2C164.2,50.3,163,49.9,161.7,49.5z"/>
		<polygon points="97.1,63.5 93.1,57.7 92.4,57.7 92.4,64.9 93.2,64.9 93.2,59 97.2,64.9 97.8,64.9 97.8,57.7 97.1,57.7 		"/>
		<polygon points="101.1,61.6 104.3,61.6 104.3,60.9 101.1,60.9 101.1,58.3 104.6,58.3 104.6,57.7 100.4,57.7 100.4,64.9 
			104.6,64.9 104.6,64.2 101.1,64.2 		"/>
		<polygon points="106.2,58.3 108.4,58.3 108.4,64.9 109.2,64.9 109.2,58.3 111.4,58.3 111.4,57.7 106.2,57.7 		"/>
		<polygon points="120.1,63.9 118.3,57.7 117.4,57.7 115.5,63.9 113.8,57.7 113,57.7 115.1,64.9 115.9,64.9 117.8,58.6 119.7,64.9 
			120.6,64.9 122.7,57.7 121.9,57.7 		"/>
		<path d="M127.8,57.5c-2.1,0-3.7,1.7-3.7,3.7c0,2.1,1.6,3.7,3.7,3.7c2.1,0,3.7-1.7,3.7-3.7C131.5,59.2,129.9,57.5,127.8,57.5z
			 M127.8,64.3c-1.7,0-3-1.3-3-3c0-1.7,1.3-3,3-3c1.7,0,3,1.3,3,3C130.8,63,129.5,64.3,127.8,64.3z"/>
		<path d="M138.8,59.8c0-1.2-1-2.2-2.2-2.2h-2.9v7.2h0.7V62h2l1.7,2.9h0.8l-1.8-3C138.1,61.6,138.8,60.8,138.8,59.8z M134.4,61.3v-3
			h2.2c0.8,0,1.4,0.7,1.4,1.5c0,0.8-0.6,1.5-1.4,1.5H134.4z"/>
		<polygon points="145.9,57.7 145,57.7 141.7,61 141.7,57.7 141,57.7 141,64.9 141.7,64.9 141.7,61.4 145.1,64.9 146,64.9 
			142.4,61.2 		"/>
	</g>
</g>
</svg>
